<svg version="1.1" id="Capa_1" xmlns="http://www.w3.org/2000/svg" xmlns:xlink="http://www.w3.org/1999/xlink" x="0px" y="0px"
	 viewBox="0 0 337.76 337.76" style="enable-background:new 0 0 337.76 337.76;" xml:space="preserve">
<g>
		<path d="M320.88,67.76H223.6c0,0,0-0.56,0-0.88V35.92c0-9.323-7.557-16.88-16.88-16.88h-75.76c-9.323,0-16.88,7.557-16.88,16.88
			v31.04c0,0,0,0.56,0,0.88h-97.2C7.557,67.84,0,75.397,0,84.72v217.12c0,9.323,7.557,16.88,16.88,16.88h304
			c9.323,0,16.88-7.557,16.88-16.88V84.64C337.76,75.317,330.203,67.76,320.88,67.76z M130.08,66.8l0.16-31.04
			c0-0.486,0.394-0.88,0.88-0.88h75.92c0.486,0,0.88,0.394,0.88,0.88V66.8c0,0.486-0.394,0.88-0.88,0.88h-76.08
			C130.474,67.68,130.08,67.286,130.08,66.8C130.08,66.8,130.08,66.8,130.08,66.8z M16.88,83.76h304
			c-7.52,14.24-46.64,81.6-119.44,97.76v-9.28c0.002-9.199-7.363-16.706-16.56-16.88h-32c-9.323,0-16.88,7.557-16.88,16.88v9.44
			c-72.72-16-112-83.6-119.44-97.76L16.88,83.76z M185.52,172.24v46.56c0,0.486-0.394,0.88-0.88,0.88h-31.76
			c-0.486,0-0.88-0.394-0.88-0.88v-46.56c0-0.486,0.394-0.88,0.88-0.88h32C185.271,171.47,185.535,171.834,185.52,172.24z
			 M321.52,301.92c0,0.486-0.394,0.88-0.88,0.88H16.88c-0.486,0-0.88-0.394-0.88-0.88V113.68c19.68,28.56,58.88,72,120,84.32v20.72
			c0,9.323,7.557,16.88,16.88,16.88h32c9.323,0,16.88-7.557,16.88-16.88V198c61.12-12.16,100.32-56,120-84.32L321.52,301.92z"/>
</g>
</svg>
