<svg height="490pt" viewBox="0 -138 490.66667 490" width="490pt" xmlns="http://www.w3.org/2000/svg"><path d="m388.179688 213.667969c-21.546876 0-42.238282-7.125-60.03125-20.652344-1.066407-.492187-2.070313-1.171875-2.941407-2.046875l-44.738281-44.417969c-4.179688-4.136719-4.203125-10.898437-.042969-15.082031 4.183594-4.179688 10.921875-4.160156 15.105469-.042969l42.921875 42.625c.320313.214844.640625.425781.9375.660157 14.402344 11.542968 31.277344 17.621093 48.789063 17.621093 44.757812 0 81.152343-38.269531 81.152343-85.332031s-36.414062-85.332031-81.152343-85.332031c-17.492188 0-34.367188 6.078125-48.789063 17.597656-.488281.40625-1.042969.746094-1.597656 1.066406l-172.84375 151.105469c-.789063.683594-1.640625 1.257812-2.558594 1.664062-17.75 13.460938-38.402344 20.566407-59.90625 20.566407-56.511719 0-102.484375-47.851563-102.484375-106.667969s45.972656-106.667969 102.484375-106.667969c21.546875 0 42.242187 7.125 60.03125 20.652344 1.070313.492187 2.070313 1.171875 2.945313 2.046875l44.738281 44.417969c4.179687 4.136719 4.199219 10.898437.039062 15.082031-4.160156 4.203125-10.898437 4.203125-15.101562.042969l-42.921875-42.644531c-.320313-.214844-.640625-.429688-.941406-.664063-14.398438-11.519531-31.273438-17.597656-48.789063-17.597656-44.734375 0-81.152344 38.269531-81.152344 85.332031s36.417969 85.332031 81.152344 85.332031c17.496094 0 34.367187-6.078125 48.789063-17.597656.492187-.40625 1.046874-.746094 1.601562-1.066406l172.84375-151.105469c.789062-.683594 1.640625-1.257812 2.558594-1.664062 17.75-13.460938 38.398437-20.566407 59.902344-20.566407 56.511718 0 102.488281 47.851563 102.488281 106.667969s-45.976563 106.667969-102.488281 106.667969zm0 0"/><path d="m202.667969 85.667969h-64c-5.890625 0-10.667969-4.78125-10.667969-10.667969s4.777344-10.667969 10.667969-10.667969h53.332031v-53.332031c0-5.886719 4.777344-10.667969 10.667969-10.667969 5.886719 0 10.664062 4.78125 10.664062 10.667969v64c0 5.886719-4.777343 10.667969-10.664062 10.667969zm0 0"/><path d="m288 213.667969c-5.886719 0-10.667969-4.78125-10.667969-10.667969v-64c0-5.886719 4.78125-10.667969 10.667969-10.667969h64c5.886719 0 10.667969 4.78125 10.667969 10.667969s-4.78125 10.667969-10.667969 10.667969h-53.332031v53.332031c0 5.886719-4.78125 10.667969-10.667969 10.667969zm0 0"/></svg>