<svg height="512" viewBox="0 0 128 128" width="512" xmlns="http://www.w3.org/2000/svg"><g><path d="m121.937 4.826a1.756 1.756 0 0 0 -2.014.924c-.16.328-4.119 8.112-21.461 17.27a1.748 1.748 0 0 0 -.987 1.143 65.867 65.867 0 0 1 -4.388 11.782 24.213 24.213 0 0 1 -2.013-6.92 1.75 1.75 0 0 0 -2.418-1.361c-4.584 1.953-9.573 3.813-14.829 5.527a107.828 107.828 0 0 0 -20.069 8.747 1.748 1.748 0 0 0 -.785.953q-1.186 3.48-2.562 6.574.057-1.032.152-2.194a1.75 1.75 0 0 0 -2.741-1.583c-17.779 12.312-27.467 29.689-30.476 54.622a87.375 87.375 0 0 0 -11.928 15.695 4.87 4.87 0 0 0 1.482 6.513 4.725 4.725 0 0 0 2.554.753h80a1.75 1.75 0 0 0 0-3.5h-75.189a80.458 80.458 0 0 1 10.605-13.582c17.251-.846 57.253-4.33 72.974-18.544a43.377 43.377 0 0 0 3.251-3.273 1.75 1.75 0 0 0 -.942-2.882c-.375-.078-.746-.16-1.115-.243 1.244-.176 2.642-.343 4.183-.481a1.757 1.757 0 0 0 1.284-.75c12.779-18.544 16.457-32.95 18.737-73.4a1.75 1.75 0 0 0 -1.305-1.79zm-113.496 112.942c10.9-18.7 31.07-32.911 52.423-47.954 4.468-3.147 9.536-6.714 14.393-10.281a1.251 1.251 0 0 1 .743-.246 1.282 1.282 0 0 1 .2.016 1.228 1.228 0 0 1 .812.5 1.255 1.255 0 0 1 -.266 1.745c-4.879 3.573-9.96 7.152-14.446 10.31-21.163 14.91-41.153 28.993-51.774 47.293a1.24 1.24 0 0 1 -1.75.417 1.356 1.356 0 0 1 -.335-1.8zm93.642-40.411a62.972 62.972 0 0 0 -10.967 1.9 1.751 1.751 0 0 0 -.083 3.324c1.684.6 3.479 1.146 5.363 1.628-.3.287-.595.565-.9.837-14.012 12.669-50.513 16.385-66.938 17.429 10.112-9.683 22.709-18.56 35.762-27.755 4.5-3.167 9.59-6.756 14.491-10.351a4.764 4.764 0 0 0 1.029-6.621 4.744 4.744 0 0 0 -6.653-1.036c-4.834 3.546-9.884 7.1-14.339 10.242-13.584 9.57-26.694 18.808-37.368 29.137 3.255-20.02 11.408-34.614 25.368-45.36a49.382 49.382 0 0 0 .079 6.122 1.75 1.75 0 0 0 3.244.722 71.093 71.093 0 0 0 5.9-12.924 105.079 105.079 0 0 1 18.846-8.132c4.59-1.5 8.984-3.106 13.093-4.79 1.27 5.832 3.726 8.775 3.843 8.911a1.75 1.75 0 0 0 2.855-.271 65.8 65.8 0 0 0 5.941-14.547c9.846-5.266 15.556-10.162 18.753-13.61-2.24 34.822-5.968 48.463-17.319 65.145z"/><path d="m112.268 40.04a1.748 1.748 0 0 0 -2.034 1.412c-.477 2.653-1 5.073-1.586 7.4a1.751 1.751 0 0 0 1.267 2.126 1.73 1.73 0 0 0 .431.053 1.75 1.75 0 0 0 1.695-1.32c.609-2.4 1.146-4.9 1.639-7.637a1.751 1.751 0 0 0 -1.412-2.034z"/></g></svg>