<svg version="1.1" id="Capa_1" xmlns="http://www.w3.org/2000/svg" xmlns:xlink="http://www.w3.org/1999/xlink" x="0px" y="0px"
	 viewBox="0 0 512.024 512.024" style="enable-background:new 0 0 512.024 512.024;" xml:space="preserve">
<g>
	<g>
		<path d="M487.016,1.624c-5.632-2.752-12.288-1.952-17.088,1.984c-39.744,32.352-76.896,46.016-119.904,61.888
			c-29.088,10.688-61.984,22.848-99.264,42.528c-37.632,21.504-50.72,67.648-55.072,102.976
			c-3.392-11.744-5.344-27.872-3.712-49.792c0.48-6.496-3.04-12.64-8.832-15.52c-5.792-2.912-12.8-2.016-17.728,2.336
			C47.912,251.576,56.456,345.88,77.384,410.776c-39.104,42.688-57.76,74.656-59.264,77.344c-4.384,7.68-1.696,17.408,5.984,21.792
			c2.496,1.44,5.216,2.112,7.872,2.112c5.568,0,10.976-2.912,13.952-8.064c0.352-0.608,17.856-30.432,54.944-70.944
			c26.272,5.088,51.584,8,75.584,8c65.6,0,122.624-19.008,170.176-56.864C490.152,269.912,495.816,26.584,496.008,16.28
			C496.104,10.072,492.616,4.344,487.016,1.624z M326.664,359.128c-52.672,41.888-119.52,57.056-198.592,45.984
			c39.808-38.496,94.784-82.048,167.2-118.88c7.872-3.968,11.008-13.6,6.976-21.472c-4-7.904-13.6-10.944-21.504-7.008
			c-77.632,39.456-135.872,85.792-177.696,126.56c-12.928-51.616-10.592-115.264,57.536-187.264
			c6.944,59.36,42.048,73.312,43.808,73.952c5.12,1.92,10.848,1.12,15.232-2.176c4.352-3.264,6.752-8.512,6.368-13.952
			c-1.856-25.6,1.888-96.896,40.192-118.816c34.912-18.432,65.408-29.664,94.912-40.544c34.24-12.608,67.04-24.672,100.672-46.432
			C454.984,118.36,428.552,278.136,326.664,359.128z"/>
	</g>
</g>
<g>
	<g>
		<path d="M352.008,480.024h-256c-8.832,0-16,7.168-16,16c0,8.832,7.168,16,16,16h256c8.832,0,16-7.168,16-16
			C368.008,487.192,360.84,480.024,352.008,480.024z"/>
	</g>
</g>
</svg>
