<svg id="Capa_1" enable-background="new 0 0 512 512" height="512" viewBox="0 0 512 512" width="512" xmlns="http://www.w3.org/2000/svg"><g><path d="m0 466c0 5.522 4.478 10 10 10h492c5.522 0 10-4.478 10-10v-420c0-5.522-4.478-10-10-10h-492c-5.522 0-10 4.478-10 10zm492-410v40h-190.999c-5.522 0-10 4.478-10 10s4.478 10 10 10h190.999v340h-472v-340h191.001c5.522 0 10-4.478 10-10s-4.478-10-10-10h-191.001v-40z"/><path d="m251.094 331.384 90.136 52.036c1.548.894 3.273 1.34 5 1.34 1.733 0 3.468-.45 5.019-1.351l89.77-52.09c.018-.01.032-.023.05-.034 2.938-1.725 4.893-4.933 4.925-8.517 0-.033.007-.066.007-.099v-104.2c0-3.558-1.89-6.848-4.964-8.639l-90-52.47c-3.057-1.781-6.953-1.818-10.072 0l-90 52.47c-3.074 1.791-4.964 5.081-4.964 8.639v104.2c-.001 3.649 2.052 7.005 5.093 8.715zm95.124 31.822-70.218-40.537 70.219-40.544 69.859 40.544zm79.782-57.901-70-40.626v-81.273l70 40.81zm-90-121.9v81.525l-70 40.418v-81.134z"/><path d="m106 206h60c5.522 0 10-4.478 10-10s-4.478-10-10-10h-60c-5.522 0-10 4.478-10 10s4.478 10 10 10z"/><path d="m196 246h-120c-5.522 0-10 4.478-10 10s4.478 10 10 10h120c5.522 0 10-4.478 10-10s-4.478-10-10-10z"/><path d="m196 306h-120c-5.522 0-10 4.478-10 10s4.478 10 10 10h120c5.522 0 10-4.478 10-10s-4.478-10-10-10z"/><path d="m196 366h-120c-5.522 0-10 4.478-10 10s4.478 10 10 10h120c5.522 0 10-4.478 10-10s-4.478-10-10-10z"/><circle cx="256.001" cy="106" r="10"/></g></svg>