<svg id="Capa_1" enable-background="new 0 0 512 512" height="512" viewBox="0 0 512 512" width="512" xmlns="http://www.w3.org/2000/svg"><g><path d="m226.022 121.964c8.284 0 15-6.716 15-15s-6.716-15-15-15h-45.492v-15.653c0-8.284-6.716-15-15-15s-15 6.716-15 15v15.653h-45.491c-8.284 0-15 6.716-15 15s6.716 15 15 15h45.491v16.334c-4.259 7.375-15.227 25.736-26.925 40.25-12.729 15.793-27.285 26.562-27.413 26.656-6.69 4.886-8.153 14.27-3.267 20.96 4.885 6.689 14.268 8.153 20.96 3.267 10.452-7.638 24.879-21.21 36.645-36.611v24.497c0 8.284 6.716 15 15 15s15-6.716 15-15v-24.497c11.616 15.204 25.984 28.82 36.645 36.612 6.689 4.885 16.074 3.423 20.96-3.267s3.423-16.075-3.267-20.96c-.145-.105-14.561-10.709-27.413-26.656-11.665-14.473-22.658-32.869-26.925-40.253v-16.331h45.492z"/><path d="m363.748 303.08c-2.32-5.459-7.639-9.039-13.57-9.132-5.938-.131-11.359 3.317-13.85 8.701-42.336 91.532-31.005 67.032-53.091 114.789-3.478 7.519-.201 16.434 7.318 19.911 7.521 3.477 16.434.198 19.91-7.318l10.567-22.849h54.355l9.529 22.419c3.243 7.63 12.055 11.176 19.672 7.938 7.624-3.24 11.178-12.048 7.938-19.672-14.092-33.153-1.296-3.04-48.778-114.787zm-28.84 74.102 14.453-31.248 13.277 31.248z"/><path d="m466.643 260.721-8.716-67.094c-1.259-9.688-11.308-15.601-20.38-12.021l-99.055 39.078c-10.238 0-16.997-.186-27.594 1.15 12.798-21.665 20.156-46.908 20.156-73.841v-2.35c0-80.307-65.331-145.643-145.633-145.643h-39.788c-80.302 0-145.633 65.336-145.633 145.643v2.35c0 31.591 10.395 62.554 29.359 87.702l8.769 83.719c.499 4.761 3.24 8.998 7.378 11.404 2.322 1.351 4.927 2.033 7.541 2.033 2.045 0 4.095-.418 6.02-1.261l86.642-37.964h39.713c6.203 0 12.316-.392 18.317-1.149-12.804 21.671-20.166 46.922-20.166 73.864 0 38.899 15.149 75.478 42.661 103.001 27.52 27.509 64.099 42.658 102.997 42.658h37.111c80.317 0 145.658-65.342 145.658-145.658 0-40.171-16.204-77.975-45.357-105.621zm-330.027 4.136-70.79 31.018-7.077-67.571c-.301-2.871-1.423-5.594-3.233-7.842-16.693-20.742-25.516-45.801-25.516-72.469v-2.35c0-63.765 51.873-115.643 115.633-115.643h39.788c63.76 0 115.633 51.877 115.633 115.643v2.35c0 63.76-51.873 115.633-115.633 115.633-46.664 0-44.891-.484-48.805 1.231zm229.726 217.143h-37.111c-30.888 0-59.935-12.03-81.784-33.871-21.844-21.853-33.875-50.899-33.875-81.788 0-63.774 51.884-115.658 115.658-115.658 12.856 0 14.222.293 17.618-1.046l83.807-33.063 6.944 53.453c.898 6.913 4.925 8.956 10.528 14.528 21.844 21.844 33.873 50.89 33.873 81.787 0 63.774-51.883 115.658-115.658 115.658z"/></g></svg>