<svg version="1.1" id="Capa_1" xmlns="http://www.w3.org/2000/svg" xmlns:xlink="http://www.w3.org/1999/xlink" x="0px" y="0px"
	 viewBox="0 0 512 512" style="enable-background:new 0 0 512 512;" xml:space="preserve">
<g>
	<g>
		<path d="M292,210h-72c-5.523,0-10,4.478-10,10v72c0,5.522,4.477,10,10,10h72c5.523,0,10-4.478,10-10v-72
			C302,214.478,297.523,210,292,210z M282,282h-52v-52h52V282z"/>
	</g>
</g>
<g>
	<g>
		<path d="M478,54c-18.748,0-34,15.252-34,34s15.252,34,34,34s34-15.252,34-34S496.748,54,478,54z M478,102c-7.72,0-14-6.28-14-14
			c0-7.72,6.28-14,14-14c7.72,0,14,6.28,14,14C492,95.72,485.72,102,478,102z"/>
	</g>
</g>
<g>
	<g>
		<path d="M426.59,80.9c-1.86-1.859-4.44-2.93-7.07-2.93c-2.64,0-5.22,1.07-7.08,2.93c-1.86,1.86-2.92,4.44-2.92,7.07
			c0,2.63,1.06,5.21,2.92,7.07c1.87,1.859,4.44,2.93,7.08,2.93c2.63,0,5.21-1.07,7.07-2.93c1.86-1.86,2.93-4.44,2.93-7.07
			C429.52,85.34,428.45,82.76,426.59,80.9z"/>
	</g>
</g>
<g>
	<g>
		<path d="M415.534,266c4.281,13.883,17.229,24,32.497,24c18.748,0,34-15.252,34-34s-15.253-34-34-34
			c-15.269,0-28.217,10.117-32.497,24H354v-78c0-5.522-4.477-10-10-10h-16V97.97h56.022c5.523,0,10-4.478,10-10
			c0-5.522-4.477-10-10-10H318c-5.523,0-10,4.478-10,10V158h-42V96.467c13.882-4.281,24-17.228,24-32.497c0-18.748-15.252-34-34-34
			s-34,15.252-34,34c0,15.269,10.118,28.217,24,32.497V158h-78c-5.523,0-10,4.478-10,10v16H97.969V66.506
			C111.867,62.235,122,49.28,122,34c0-18.748-15.252-34-34-34S54,15.252,54,34c0,15.258,10.103,28.198,23.969,32.488V194
			c0,5.522,4.477,10,10,10H158v42H96.466c-4.281-13.883-17.229-24-32.497-24c-18.748,0-34,15.252-34,34s15.252,34,34,34
			c15.269,0,28.217-10.117,32.497-24H158v78c0,5.522,4.477,10,10,10h16v60.03h-56.022c-5.523,0-10,4.478-10,10
			c0,5.522,4.477,10,10,10H194c5.523,0,10-4.478,10-10V354h42v61.533c-13.882,4.281-24,17.228-24,32.497c0,18.748,15.252,34,34,34
			s34-15.252,34-34c0-15.269-10.118-28.217-24-32.497V354h78c5.523,0,10-4.478,10-10v-16h60.031v117.494
			C400.133,449.765,390,462.72,390,478c0,18.748,15.252,34,34,34s34-15.252,34-34c0-15.258-10.103-28.198-23.969-32.488V318
			c0-5.522-4.477-10-10-10H354v-42H415.534z M448.031,242c7.72,0,14,6.28,14,14c0,7.72-6.281,14-14,14c-7.72,0-14-6.28-14-14
			C434.031,248.28,440.311,242,448.031,242z M88,48c-7.72,0-14-6.28-14-14c0-7.72,6.28-14,14-14c7.72,0,14,6.28,14,14
			S95.72,48,88,48z M63.969,270c-7.72,0-14-6.28-14-14c0-7.72,6.28-14,14-14c7.72,0,14,6.28,14,14
			C77.969,263.72,71.689,270,63.969,270z M242,63.97c0-7.72,6.28-14,14-14c7.72,0,14,6.28,14,14c0,7.72-6.28,14-14,14
			C248.28,77.97,242,71.69,242,63.97z M270,448.03c0,7.72-6.28,14-14,14c-7.72,0-14-6.28-14-14c0-7.72,6.28-14,14-14
			C263.72,434.03,270,440.31,270,448.03z M334,334H178V178h156V334z M424,464c7.72,0,14,6.28,14,14c0,7.72-6.28,14-14,14
			c-7.72,0-14-6.28-14-14C410,470.28,416.28,464,424,464z"/>
	</g>
</g>
<g>
	<g>
		<path d="M34,390c-18.748,0-34,15.252-34,34s15.252,34,34,34s34-15.252,34-34S52.748,390,34,390z M34,438c-7.72,0-14-6.28-14-14
			c0-7.72,6.28-14,14-14c7.72,0,14,6.28,14,14C48,431.72,41.72,438,34,438z"/>
	</g>
</g>
<g>
	<g>
		<path d="M99.57,416.96c-1.86-1.86-4.44-2.93-7.07-2.93s-5.21,1.069-7.07,2.93c-1.86,1.859-2.93,4.439-2.93,7.07
			c0,2.63,1.07,5.21,2.93,7.069c1.86,1.86,4.44,2.931,7.07,2.931s5.21-1.07,7.07-2.931c1.86-1.859,2.93-4.439,2.93-7.069
			C102.5,421.399,101.43,418.819,99.57,416.96z"/>
	</g>
</g>
</svg>
