<svg id="Capa_1" enable-background="new 0 0 511.999 511.999" height="512" viewBox="0 0 511.999 511.999" width="512" xmlns="http://www.w3.org/2000/svg"><g><path d="m301 271.999c-17.901 0-33.997 7.881-45 20.354-11.003-12.474-27.099-20.354-45-20.354-33.084 0-60 26.916-60 60 0 58.223 50.122 102.503 100.256 119.23 1.54.513 3.142.77 4.744.77s3.204-.257 4.744-.77c50.67-16.906 100.256-61.394 100.256-119.23 0-33.084-26.917-60-60-60zm-44.999 148.938c-17.206-7.092-75.001-34.943-75.001-88.938 0-16.542 13.458-30 30-30s30 13.458 30 30c0 8.284 6.716 15 15 15s15-6.716 15-15c0-16.542 13.458-30 30-30s30 13.458 30 30c0 54.011-57.829 81.861-74.999 88.938z"/><path d="m398.444 108.682c-5.689 1.544-9.947 6.278-10.882 12.1-3.105 19.347-8.288 36.234-14.593 47.554-5.581 10.018-10.27 12.664-11.97 12.664-2.235 0-22.842-2.282-57.668-81.317-19.342-43.896-32.831-88.553-32.965-88.998-1.898-6.316-7.698-10.652-14.291-10.685-.025 0-.05 0-.076 0-6.563 0-12.369 4.268-14.321 10.54-.138.443-14.054 44.916-33.638 88.853-35.355 79.316-54.925 81.606-57.04 81.606-1.7 0-6.389-2.646-11.969-12.664-6.305-11.319-11.488-28.207-14.593-47.554-.935-5.821-5.192-10.556-10.882-12.1-5.688-1.543-11.756.387-15.505 4.938-45.746 55.521-67.051 110.613-67.051 173.38 0 122.219 94.8 225 225 225 130.245 0 225-102.821 225-225 0-62.767-21.306-117.858-67.05-173.379-3.749-4.55-9.816-6.481-15.506-4.938zm-142.444 373.317c-109.346 0-195-85.654-195-195 0-46.809 12.89-87.652 41.272-129.206 10.707 33.838 28.023 53.206 48.728 53.206 27.384 0 54.215-31.583 84.441-99.394 7.872-17.66 14.796-35.199 20.358-50.166 5.431 14.955 12.213 32.471 19.975 50.103 29.867 67.854 56.948 99.457 85.226 99.457 20.704 0 38.021-19.368 48.728-53.206 28.382 41.554 41.272 82.397 41.272 129.206 0 109.346-85.655 195-195 195z"/></g></svg>