<svg version="1.1" id="Capa_1" xmlns="http://www.w3.org/2000/svg" xmlns:xlink="http://www.w3.org/1999/xlink" x="0px" y="0px"
	 viewBox="0 0 512.001 512.001" style="enable-background:new 0 0 512.001 512.001;" xml:space="preserve">
<g>
	<g>
		<path d="M511.238,492.3l-24.943-75.661c15.18-7.239,25.697-22.733,25.697-40.64c0-19.555-12.541-36.227-29.999-42.419V160.228
			l21.686-10.798c5.086-2.532,8.305-7.721,8.314-13.403c0.009-5.682-3.192-10.881-8.27-13.43L262.726,1.599
			c-4.235-2.126-9.226-2.126-13.461,0L8.27,122.597c-5.078,2.549-8.279,7.749-8.27,13.43c0.009,5.681,3.229,10.871,8.315,13.403
			l81.685,40.673V286c0,4.31,1.854,8.411,5.088,11.259c2.957,2.603,73.412,63.74,160.909,63.74s157.952-61.137,160.909-63.74
			c3.235-2.848,5.088-6.949,5.088-11.259v-95.897l29.999-14.938v158.414c-17.459,6.192-29.999,22.865-29.999,42.419
			c0,17.908,10.517,33.401,25.697,40.64L422.748,492.3c-3.199,9.705,4.05,19.697,14.246,19.697h59.999
			C507.211,511.996,514.43,501.983,511.238,492.3z M391.994,278.862C375.291,291.856,319.679,331,255.997,331
			c-63.692,0-119.312-39.155-135.998-52.136v-73.823l129.312,64.388c2.105,1.048,4.396,1.573,6.686,1.573
			c2.29,0,4.581-0.524,6.686-1.573l129.312-64.388V278.862z M255.997,239.244L48.541,135.947L255.997,31.789l207.455,104.158
			L255.997,239.244z M457.732,481.997l9.261-28.091l9.261,28.091H457.732z M466.993,390.999c-8.271,0-15-6.729-15-15s6.729-15,15-15
			s15,6.729,15,15S475.264,390.999,466.993,390.999z"/>
	</g>
</g>
<g>
	<g>
		<path d="M255.997,91.004c-24.813,0-44.999,20.187-44.999,44.999s20.187,44.999,44.999,44.999
			c24.813,0,44.999-20.187,44.999-44.999S280.809,91.004,255.997,91.004z M255.997,151.003c-8.271,0-15-6.729-15-15s6.729-15,15-15
			c8.271,0,15,6.729,15,15S264.267,151.003,255.997,151.003z"/>
	</g>
</g>
</svg>
